<?xml version="1.0" encoding="utf-8"?>
<!-- Generator: Adobe Illustrator 25.0.0, SVG Export Plug-In . SVG Version: 6.00 Build 0)  -->
<svg version="1.1" id="圖層_1" xmlns="http://www.w3.org/2000/svg" xmlns:xlink="http://www.w3.org/1999/xlink" x="0px" y="0px"
	 viewBox="0 0 400.4 97.8" style="enable-background:new 0 0 400.4 97.8;" xml:space="preserve">
<style type="text/css">
	.st0{fill:#FFFFFF;}
	.st1{clip-path:url(#SVGID_2_);fill:#FFFFFF;}
	.st2{fill:#FFFFFF;stroke:#000000;stroke-miterlimit:10;}
</style>
<g>
	<path class="st0" d="M388.8,43.8c0,0.2-0.1,0.5-0.3,0.6c-0.2,0.1-0.3,0.2-0.6,0.2h-7.7v26.8c0,0.2-0.1,0.5-0.3,0.6
		c-0.2,0.2-0.4,0.2-0.6,0.2h-4.5c-0.2,0-0.3-0.1-0.6-0.3c-0.2-0.2-0.3-0.4-0.3-0.6V44.6h-7.7c-0.3,0-0.4,0-0.6-0.2
		c-0.2-0.1-0.3-0.3-0.3-0.5v-3.5c0-0.2,0.1-0.4,0.3-0.6c0.1-0.2,0.3-0.2,0.6-0.2h21.6c0.3,0,0.4,0,0.6,0.2c0.2,0.1,0.3,0.3,0.3,0.6
		V43.8z M367.3,71.1c0,0.2,0,0.5-0.2,0.7c-0.2,0.1-0.5,0.2-0.8,0.3c-0.6,0.2-1.8,0.3-3.4,0.4c-1.3,0.1-2.7,0.2-4,0.2
		c-2.1,0-3.9-0.3-5.4-0.8c-1.5-0.5-2.7-1.4-3.5-2.7c-0.9-1.3-1.3-3.2-1.3-5.5V40.3c0-0.2,0.1-0.4,0.3-0.6c0.2-0.2,0.4-0.3,0.6-0.3
		h4.4c0.2,0,0.5,0.1,0.6,0.3c0.2,0.2,0.3,0.4,0.3,0.6v23.3c0,1.4,0.2,2.4,0.7,2.9c0.5,0.6,1.5,0.8,2.7,0.8h8.1
		c0.3,0,0.5,0.1,0.7,0.3c0.2,0.2,0.3,0.4,0.3,0.6L367.3,71.1L367.3,71.1z M337.4,58.8v-5.9c0-2.9-0.5-5-1.5-6.4
		c-1.1-1.4-2.7-2.1-4.9-2.1c-2.1,0-3.8,0.7-4.8,2.1c-1.1,1.4-1.6,3.5-1.6,6.4v6c0,2.9,0.5,5,1.6,6.4c1,1.4,2.7,2.1,4.8,2.1
		c2.2,0,3.8-0.7,4.9-2.1C336.8,63.9,337.4,61.7,337.4,58.8 M343.5,58.8c0,3.2-0.5,5.8-1.5,7.8c-1.1,2.1-2.6,3.6-4.5,4.5
		c-1.9,0.9-4.1,1.4-6.6,1.4c-2.4,0-4.6-0.5-6.5-1.4c-1.9-1-3.4-2.5-4.5-4.5c-1.1-2.1-1.6-4.7-1.6-7.8v-6c0-3.1,0.5-5.7,1.6-7.8
		s2.5-3.6,4.5-4.5c1.9-0.9,4.1-1.5,6.5-1.5c2.5,0,4.7,0.5,6.6,1.5c1.9,1,3.3,2.5,4.5,4.5c1,2.1,1.5,4.7,1.5,7.8V58.8L343.5,58.8z
		 M309.1,63v-0.6c0-1.3-0.4-2.5-1.3-3.3c-0.9-0.9-2.2-1.3-4.1-1.3H298v9.7c0.4,0,1,0,1.9,0c0.9,0.1,1.5,0.1,1.7,0.1
		c2.8,0,4.7-0.3,5.8-1.1C308.5,65.8,309.1,64.6,309.1,63 M308.9,49v-0.6c0-1.1-0.3-1.9-0.8-2.5c-0.5-0.6-1.3-1.1-2.4-1.3
		c-1.1-0.3-2.6-0.4-4.5-0.4c-0.6,0-1.7,0-3.2,0.1v9h5.6c1.9,0,3.3-0.4,4-1.2C308.5,51.3,308.9,50.3,308.9,49 M315,63.1
		c0,2.3-0.5,4.1-1.6,5.5c-1.1,1.4-2.6,2.4-4.6,3.1c-2,0.6-4.4,0.9-7.2,0.9c-3.4,0-6-0.2-7.6-0.5c-0.8-0.2-1.3-0.4-1.6-0.7
		c-0.3-0.3-0.5-0.9-0.5-1.7V41.9c0-0.5,0.1-1,0.2-1.2c0.1-0.3,0.3-0.6,0.6-0.7c0.3-0.2,0.6-0.3,1.2-0.4c0.7-0.1,1.8-0.2,3-0.3
		c1.4-0.1,2.9-0.2,4.3-0.2c2.1,0,4,0.2,5.6,0.5c1.5,0.3,2.9,0.8,4.2,1.5c1.2,0.7,2.1,1.6,2.8,2.8c0.6,1.2,1,2.6,1,4.2V49
		c0,1-0.1,1.9-0.4,2.8c-0.6,1.8-1.9,3.2-3.6,3.9c1.3,0.6,2.4,1.4,3.1,2.6c0.8,1.1,1.1,2.5,1.1,4.1L315,63.1L315,63.1z M281.3,49.5
		v-0.4c0-1.7-0.6-2.9-1.6-3.6c-1.1-0.7-2.7-1.1-5-1.1c-0.3,0-1,0-2,0c-0.6,0-1.3,0.1-1.9,0.1v10c1.4,0.1,2.7,0.1,3.9,0.1
		c2.3,0,4-0.4,5-1.2C280.8,52.7,281.3,51.3,281.3,49.5 M288.5,71.8c0,0.3-0.2,0.5-0.5,0.5h-5.4c-0.2,0-0.4-0.1-0.5-0.2
		c-0.1-0.2-0.3-0.4-0.4-0.7l-6.3-11.8h-0.6c-0.2,0-0.7,0-1.5-0.1c-0.8,0-1.3,0-1.6,0c-0.2-0.1-0.5-0.1-0.8-0.1v12
		c0,0.2-0.1,0.5-0.3,0.6c-0.2,0.2-0.4,0.2-0.6,0.2h-4.4c-0.2,0-0.5-0.1-0.6-0.3c-0.2-0.1-0.3-0.4-0.3-0.6V41c0-0.4,0.1-0.7,0.4-0.9
		c0.2-0.2,0.6-0.3,1.1-0.4c2.4-0.4,5.3-0.6,8.6-0.6c3.8,0,6.9,0.8,9.2,2.3c2.4,1.6,3.5,4.1,3.5,7.7v0.4c0,2.2-0.5,4.1-1.5,5.6
		c-1.1,1.5-2.5,2.7-4.4,3.4l6.9,12.9C288.4,71.5,288.5,71.6,288.5,71.8 M259.5,71.1c0,0.6-0.3,0.9-0.9,0.9c-0.4,0-0.8,0.1-1.1,0.2
		c-0.7,0.1-1.4,0.2-2.1,0.3c-0.9,0.1-1.7,0.1-2.3,0.2c-0.6,0-1.5,0-2.8,0c-2.1,0-3.9-0.3-5.4-0.8c-1.5-0.4-2.7-1.4-3.6-2.7
		c-0.9-1.3-1.3-3.2-1.3-5.5V48.2c0-2.4,0.4-4.2,1.3-5.6c0.9-1.3,2.1-2.3,3.6-2.7c1.4-0.5,3.3-0.8,5.4-0.8c3.1,0,6,0.2,8.4,0.6
		c0.4,0,0.6,0.1,0.7,0.3c0.1,0.1,0.2,0.3,0.2,0.7v2.8c0,0.2-0.1,0.5-0.3,0.7c-0.2,0.2-0.4,0.3-0.6,0.3h-9c-1.3,0-2.2,0.3-2.7,0.8
		c-0.5,0.6-0.8,1.5-0.8,3v4.8h12c0.2,0,0.5,0.1,0.6,0.3c0.2,0.2,0.3,0.4,0.3,0.6V57c0,0.2-0.1,0.4-0.3,0.6c-0.2,0.2-0.4,0.3-0.6,0.3
		h-12v5.7c0,1.4,0.3,2.4,0.8,2.9c0.5,0.6,1.4,0.8,2.7,0.8h9c0.2,0,0.5,0.1,0.6,0.3c0.2,0.2,0.3,0.4,0.3,0.6L259.5,71.1L259.5,71.1z
		 M229.8,59.2v-6.5c0-2.1-0.3-3.8-1-5c-0.6-1.2-1.5-2.1-2.7-2.6c-1.1-0.5-2.5-0.8-4.1-0.8c-0.7,0-1.2,0-1.4,0c-0.2,0-0.6,0-1,0
		c-0.5,0-0.9,0-1.3,0v22.9c0.7,0.1,1.4,0.1,2,0.1c0.6,0.1,1.1,0.1,1.8,0.1c1.6,0,2.9-0.3,4.1-0.7c1.2-0.5,2.1-1.4,2.7-2.6
		C229.4,62.9,229.8,61.3,229.8,59.2 M235.9,59.2c0,2.9-0.5,5.3-1.6,7.3c-1,2-2.7,3.6-4.7,4.6c-2.1,1-4.5,1.6-7.5,1.6
		c-0.7,0-1.8,0-3.2-0.1c-1.4-0.1-2.6-0.1-3.5-0.2c-0.9-0.1-1.5-0.2-2.1-0.3c-0.8-0.1-1.2-0.6-1.2-1.4V41c0-0.8,0.4-1.2,1.2-1.4
		c0.5-0.1,1.2-0.2,2.1-0.3s2.1-0.1,3.5-0.2c1.3,0,2.4-0.1,3.1-0.1c2.9,0,5.4,0.5,7.5,1.6c2,1,3.7,2.6,4.7,4.6
		c1.1,2.1,1.6,4.5,1.6,7.4L235.9,59.2L235.9,59.2z M206.5,70.5c0,0.5-0.2,0.9-0.5,1.3c-0.3,0.3-0.8,0.5-1.3,0.5h-4.4
		c-0.7,0-1.2-0.1-1.6-0.3c-0.4-0.2-0.8-0.7-1.1-1.3l-9.8-21.5c-0.1-0.3-0.3-0.4-0.4-0.4c-0.2,0-0.2,0.1-0.2,0.4v22.2
		c0,0.2-0.1,0.5-0.3,0.6c-0.2,0.2-0.4,0.2-0.6,0.2h-3.8c-0.2,0-0.4-0.1-0.6-0.3c-0.2-0.2-0.3-0.4-0.3-0.6V41.2
		c0-0.5,0.2-0.9,0.5-1.2c0.3-0.3,0.8-0.5,1.2-0.5h4.8c0.5,0,0.9,0.1,1.2,0.3c0.3,0.2,0.6,0.5,0.8,1.1l10.3,22.7
		c0.1,0.2,0.2,0.3,0.3,0.3c0.2,0,0.2-0.1,0.2-0.4V40.3c0-0.3,0.1-0.4,0.3-0.6c0.1-0.2,0.4-0.2,0.6-0.2h3.8c0.3,0,0.5,0,0.6,0.2
		c0.2,0.2,0.3,0.4,0.3,0.6V70.5L206.5,70.5z M176.4,60.1c0,2.3-0.3,4.3-0.9,5.9c-0.5,1.5-1.3,2.8-2.4,3.9c-1.1,1-2.4,1.7-3.9,2.1
		c-1.6,0.5-3.3,0.7-5,0.7c-1.9,0-3.5-0.3-5-0.7c-1.4-0.4-2.7-1.1-3.8-2.1c-1.1-0.9-1.9-2.2-2.5-3.9c-0.6-1.6-0.9-3.6-0.9-5.9V40.3
		c0-0.2,0.1-0.4,0.3-0.6c0.2-0.2,0.4-0.2,0.6-0.2h4.4c0.2,0,0.5,0.1,0.6,0.2c0.2,0.2,0.3,0.4,0.3,0.6v19.8c0,1.8,0.2,3.2,0.5,4.3
		c0.3,1,1,1.8,1.8,2.4c0.9,0.5,2.1,0.8,3.6,0.8c1.5,0,2.8-0.3,3.6-0.8c0.9-0.6,1.5-1.3,1.9-2.4c0.3-1.1,0.5-2.5,0.5-4.3V40.3
		c0-0.2,0.1-0.4,0.3-0.6c0.2-0.2,0.4-0.2,0.6-0.2h4.3c0.3,0,0.5,0,0.6,0.2c0.2,0.1,0.3,0.3,0.3,0.6L176.4,60.1L176.4,60.1z
		 M146.7,71.4c0,0.2-0.1,0.5-0.3,0.6c-0.2,0.2-0.4,0.2-0.6,0.2h-4.4c-0.2,0-0.4-0.1-0.6-0.3c-0.2-0.1-0.3-0.4-0.3-0.6V57.9H128v13.5
		c0,0.2-0.1,0.5-0.3,0.6c-0.2,0.2-0.4,0.3-0.6,0.3h-4.4c-0.2,0-0.4-0.1-0.6-0.3c-0.2-0.2-0.3-0.3-0.3-0.6V40.3
		c0-0.2,0.1-0.4,0.3-0.6c0.2-0.2,0.4-0.2,0.6-0.2h4.4c0.2,0,0.5,0.1,0.6,0.2c0.2,0.2,0.2,0.4,0.2,0.6v12.2h12.5V40.3
		c0-0.2,0.1-0.5,0.3-0.6c0.2-0.2,0.3-0.2,0.6-0.2h4.4c0.3,0,0.5,0,0.6,0.2c0.2,0.1,0.3,0.3,0.3,0.6L146.7,71.4L146.7,71.4z
		 M118,43.8c0,0.2-0.1,0.5-0.3,0.6c-0.2,0.1-0.4,0.2-0.6,0.2h-7.7v26.8c0,0.2-0.1,0.5-0.3,0.6c-0.2,0.2-0.4,0.2-0.6,0.2h-4.4
		c-0.2,0-0.4-0.1-0.6-0.3c-0.2-0.1-0.3-0.4-0.3-0.6V44.6h-7.7c-0.3,0-0.5,0-0.6-0.2c-0.2-0.1-0.3-0.3-0.3-0.5v-3.5
		c0-0.2,0.1-0.4,0.3-0.6c0.2-0.2,0.4-0.2,0.6-0.2h21.6c0.3,0,0.5,0,0.6,0.2c0.2,0.1,0.3,0.3,0.3,0.6L118,43.8L118,43.8z M397.7,72
		c0,0.1-0.1,0.2-0.2,0.2h-0.9c-0.1,0-0.1-0.1-0.1-0.1c-0.1-0.1-0.1-0.1-0.1-0.1v-4.1c0,0,0,0.1-0.1,0.1l-0.8,1.7
		c-0.1,0.1-0.2,0.2-0.3,0.2h-0.9c-0.1,0-0.2-0.1-0.3-0.2l-0.9-1.7v-0.1c-0.1,0-0.1,0.1-0.1,0.1v4.2c-0.1,0-0.1,0.1-0.1,0.1h-1
		c-0.1,0-0.1-0.1-0.1-0.2v-6c0-0.1,0-0.2,0.1-0.3c0.1,0,0.2-0.1,0.3-0.1h0.7c0.2,0,0.3,0.1,0.4,0.2l1.3,2.7c0.1,0.1,0.1,0.1,0.1,0.1
		s0.1,0,0.1-0.1l1.4-2.7c0-0.1,0.2-0.2,0.3-0.2h0.8c0.1,0,0.2,0.1,0.3,0.1c0,0.1,0.1,0.2,0.1,0.3L397.7,72L397.7,72z M390.9,66.6
		c0,0.1,0,0.1-0.1,0.1h-1.6V72c0,0.1,0,0.1-0.1,0.1c0,0,0,0.1-0.1,0.1h-0.9c0,0-0.1-0.1-0.1-0.1c-0.1,0-0.1-0.1-0.1-0.1v-5.3h-1.6
		c-0.1-0.1-0.1-0.1-0.1-0.1v-0.7c0,0,0-0.1,0.1-0.1c0-0.1,0.1-0.1,0.1-0.1h4.3c0,0,0.1,0,0.1,0.1c0.1,0,0.1,0.1,0.1,0.1L390.9,66.6
		L390.9,66.6z M78.1,88.4c0,0.1,0,0.1-0.1,0.1h-0.8c0,0-0.1,0-0.1-0.1c0,0,0-0.1,0-0.1v-3.9c0,0,0,0,0,0.1l-0.8,1.5
		c0,0.1-0.1,0.2-0.3,0.2h-0.8c-0.1,0-0.2-0.1-0.3-0.2L74,84.5c0-0.1-0.1-0.1-0.1-0.1s0,0,0,0.1v4c0,0.1-0.1,0.1-0.1,0.1H73
		c-0.1,0-0.1-0.1-0.1-0.1v-5.7c0-0.1,0-0.2,0.1-0.2c0.1-0.1,0.1-0.1,0.2-0.1h0.7c0.1,0,0.3,0.1,0.3,0.2l1.2,2.5
		c0,0.1,0.1,0.1,0.1,0.1c0,0,0.1,0,0.1-0.1l1.2-2.5c0.1-0.1,0.2-0.2,0.3-0.2h0.7c0.1,0,0.2,0,0.2,0.1c0.1,0.1,0.1,0.1,0.1,0.2
		L78.1,88.4L78.1,88.4z M71.7,83.3C71.7,83.3,71.7,83.3,71.7,83.3c-0.1,0.1-0.1,0.1-0.2,0.1h-1.4v5c0,0,0,0.1,0,0.1
		c-0.1,0.1-0.1,0.1-0.1,0.1h-0.8c0,0-0.1,0-0.1-0.1c-0.1,0-0.1-0.1-0.1-0.1v-5h-1.5c0,0-0.1,0-0.1,0c0-0.1,0-0.1,0-0.1v-0.7
		c0-0.1,0-0.1,0-0.1c0-0.1,0.1-0.1,0.1-0.1h4c0.1,0,0.1,0,0.1,0.1c0.1,0,0.1,0,0.1,0.1V83.3z"/>
	<g>
		<g>
			<path id="SVGID_3_" class="st0" d="M2.8,50.9c0,13.7,7.3,26.3,19.2,32.9l1.7-20l5.4,6.5L40,48.5H21.2l14.6-35
				C17.2,15.7,2.8,31.6,2.8,50.9 M39.5,39.2L39.5,39.2h19.8L36,73.7l9,0.9l-24,20.1l12-6.4c1.7,0.2,5.4,0.3,7.2,0.3
				c20.8,0,37.6-16.9,37.6-37.7C77.8,37.6,71,24,56.4,16.8L60,3.1L39.5,39.2z"/>
		</g>
		<g>
			<defs>
				<path id="SVGID_1_" d="M2.8,50.9c0,13.7,7.3,26.3,19.2,32.9l1.7-20l5.4,6.5L40,48.5H21.2l14.6-35C17.2,15.7,2.8,31.6,2.8,50.9
					 M39.5,39.2L39.5,39.2h19.8L36,73.7l9,0.9l-24,20.1l12-6.4c1.7,0.2,5.4,0.3,7.2,0.3c20.8,0,37.6-16.9,37.6-37.7
					C77.8,37.6,71,24,56.4,16.8L60,3.1L39.5,39.2z"/>
			</defs>
			<use xlink:href="#SVGID_1_"  style="overflow:visible;fill:#FFFFFF;"/>
			<clipPath id="SVGID_2_">
				<use xlink:href="#SVGID_1_"  style="overflow:visible;"/>
			</clipPath>
			<polygon class="st1" points="-40,32.7 27,129.9 120.5,65.1 53.5,-32.2 			"/>
		</g>
	</g>
</g>
<path class="st2" d="M477,157"/>
</svg>
