<?xml version="1.0" encoding="utf-8"?>
<!-- Generator: Adobe Illustrator 24.0.2, SVG Export Plug-In . SVG Version: 6.00 Build 0)  -->
<svg version="1.1" id="Layer_1" xmlns="http://www.w3.org/2000/svg" xmlns:xlink="http://www.w3.org/1999/xlink" x="0px" y="0px"
	 viewBox="0 0 393.84 226.8" style="enable-background:new 0 0 393.84 226.8;" xml:space="preserve">
<style type="text/css">
	.st0{fill:#FFFFFF;}
	.st1{fill:#231F20;}
</style>
<g>
	<g>
		<path class="st0" d="M354.16,47.68h-1.61v-7.62h-2.89v-1.48h7.38v1.48h-2.89V47.68z"/>
		<path class="st0" d="M363.21,45.44h-0.05l-2.85-4.26v6.5h-1.57v-9.1h1.7l2.77,4.3l2.77-4.3h1.7v9.1h-1.6v-6.53L363.21,45.44z"/>
	</g>
	<path class="st0" d="M317.92,140.93c22.34,0,40.51-18.17,40.51-40.51V76.01c0-22.34-18.17-40.51-40.51-40.51h-64.85
		c0,0,22.74,9.05,25.5,35.3v32.79c0,0,0,24.88-25.38,37.31L317.92,140.93z"/>
	<path class="st0" d="M234.53,140.93c22.34,0,40.51-18.17,40.51-40.51V76.01c0-22.34-18.17-40.51-40.51-40.51H75.89
		c-22.34,0-40.51,18.17-40.51,40.51v24.41c0,22.34,18.18,40.51,40.51,40.51H234.53z"/>
	<path class="st1" d="M160.67,101.41v-26.4c0-19.51,15.08-35.38,33.61-35.38h40.44c19.57,0,36.39,15.87,36.39,35.38v26.4
		c0,19.51-16.56,35.38-36.91,35.38c0,0-59.72,0-90.64,0C153.92,128.81,160.67,115.93,160.67,101.41z"/>
	<g>
		<path class="st1" d="M56.07,60.58h11.92L75.9,95.8h0.14l10.38-35.23h10.16l10.31,36.16h0.14l8.34-36.16h11.08l-14.51,54.94h-9.74
			L91.26,77.49h-0.14l-10.94,38.02h-9.39L56.07,60.58z"/>
		<path class="st1" d="M132.99,77.8h11.42v37.71h-11.42V77.8z"/>
		<path class="st1" d="M138.7,59.18c3.72,0,6.75,3.03,6.75,6.75c0,3.72-3.03,6.75-6.75,6.75c-3.73,0-6.75-3.02-6.75-6.75
			C131.95,62.2,134.97,59.18,138.7,59.18z"/>
	</g>
	<g>
		<path class="st0" d="M179.07,60.58h41.2v11.17h-29.1v11.17h27.23V94.1h-27.23v21.42h-12.1V60.58z"/>
		<path class="st0" d="M234.18,59.18c3.73,0,6.76,3.03,6.76,6.75c0,3.72-3.03,6.75-6.76,6.75c-3.72,0-6.75-3.02-6.75-6.75
			C227.43,62.2,230.46,59.18,234.18,59.18z M228.36,77.8H240v37.71h-11.64V77.8z"/>
	</g>
	<path class="st1" d="M316.44,116.75c-3.62,0-6.69-0.5-9.21-1.5c-2.52-1-4.75-2.47-6.69-4.41c-1.99-1.99-3.58-4.6-4.76-7.83
		c-1.18-3.23-1.77-7.57-1.77-13.02v-0.16c0-4.25,0.48-8.21,1.46-11.88c0.97-3.67,2.45-6.85,4.45-9.52c1.99-2.68,4.51-4.79,7.55-6.33
		c3.04-1.55,6.61-2.32,10.7-2.32c1.89,0,3.62,0.13,5.19,0.39c1.57,0.26,3.04,0.65,4.41,1.17c1.36,0.52,2.68,1.16,3.93,1.91
		s2.49,1.6,3.7,2.54l-6.37,9.33c-0.89-0.68-1.76-1.3-2.6-1.85c-0.84-0.55-1.71-1.01-2.6-1.38c-0.89-0.37-1.84-0.66-2.83-0.87
		c-1-0.21-2.07-0.31-3.23-0.31c-1.73,0-3.24,0.33-4.52,0.99c-1.29,0.66-2.39,1.56-3.3,2.69c-0.92,1.13-1.64,2.49-2.16,4.08
		c-0.53,1.58-0.89,3.27-1.1,5.07c1.36-0.89,2.92-1.7,4.68-2.44c1.76-0.73,4-1.1,6.73-1.1c2.73,0,5.27,0.38,7.63,1.14
		c2.36,0.76,4.41,1.88,6.14,3.34c1.73,1.47,3.09,3.29,4.09,5.47c1,2.18,1.5,4.71,1.5,7.59v0.16c0,2.83-0.54,5.42-1.61,7.75
		c-1.08,2.33-2.54,4.34-4.41,6.02c-1.86,1.68-4.08,2.98-6.65,3.9C322.21,116.29,319.43,116.75,316.44,116.75z M316,106.28
		c3,0,5.33-0.76,6.99-2.27c1.66-1.51,2.49-3.45,2.49-5.79v-0.16c0-2.35-0.86-4.27-2.57-5.76s-4.07-2.23-7.07-2.23
		s-5.33,0.73-6.99,2.19c-1.66,1.46-2.49,3.37-2.49,5.72v0.16c0,2.35,0.86,4.29,2.57,5.83C310.64,105.51,313,106.28,316,106.28z"/>
</g>
<g>
	<g>
		<path class="st0" d="M74.51,192.29c-2.48,0-4.82-0.46-7.01-1.37c-2.18-0.92-4.08-2.2-5.69-3.85c-1.61-1.65-2.88-3.6-3.83-5.85
			c-0.94-2.26-1.41-4.71-1.41-7.35v-0.11c0-2.58,0.46-4.99,1.39-7.25c0.93-2.26,2.2-4.22,3.82-5.91c1.62-1.68,3.55-2.99,5.79-3.95
			c2.23-0.95,4.68-1.42,7.32-1.42c1.79,0,3.41,0.18,4.87,0.54c1.46,0.36,2.79,0.86,4,1.53s2.3,1.45,3.28,2.36
			c0.97,0.92,1.84,1.92,2.61,3.01l-7.25,5.75c-1-1.29-2.09-2.31-3.28-3.05c-1.19-0.75-2.64-1.12-4.32-1.12
			c-1.23,0-2.34,0.25-3.35,0.73c-1.01,0.49-1.88,1.17-2.61,2.01c-0.73,0.85-1.3,1.85-1.71,3c-0.42,1.16-0.62,2.38-0.62,3.67v0.1
			c0,1.33,0.21,2.57,0.62,3.74c0.41,1.17,0.98,2.18,1.71,3.03c0.73,0.85,1.6,1.52,2.61,2.01c1.01,0.49,2.13,0.74,3.35,0.74
			c0.9,0,1.72-0.1,2.46-0.31c0.74-0.2,1.42-0.5,2.04-0.89c0.61-0.39,1.19-0.85,1.74-1.38c0.55-0.52,1.09-1.11,1.62-1.76l7.25,5.29
			c-0.83,1.15-1.73,2.22-2.71,3.21c-0.97,0.98-2.09,1.83-3.33,2.55c-1.25,0.71-2.64,1.27-4.17,1.68
			C78.16,192.09,76.43,192.29,74.51,192.29z"/>
		<path class="st0" d="M94.53,155.94h27.92v8.4h-18.43v5.39h16.69v7.79h-16.69v5.65h18.68v8.4H94.53V155.94z"/>
		<path class="st0" d="M128.16,155.94h16.44c2.68,0,4.95,0.34,6.81,1.02c1.86,0.68,3.36,1.63,4.52,2.85c2.05,2.04,3.08,4.8,3.08,8.3
			v0.1c0,2.75-0.65,5.02-1.94,6.82c-1.29,1.8-3.03,3.18-5.22,4.12l8.29,12.42h-11.13l-7.01-10.79h-0.1h-4.12v10.79h-9.64V155.94z
			 M144.16,173.04c1.65,0,2.93-0.38,3.83-1.14c0.9-0.76,1.34-1.79,1.34-3.08v-0.1c0-1.42-0.46-2.48-1.39-3.18
			c-0.93-0.7-2.2-1.04-3.83-1.04h-6.31v8.55H144.16z"/>
		<path class="st0" d="M172.87,164.59h-10.43v-8.66h30.5v8.66h-10.43v26.98h-9.64V164.59z"/>
		<path class="st0" d="M197.86,155.94h9.69v35.64h-9.69V155.94z"/>
		<path class="st0" d="M214.4,155.94h27.82v8.66h-18.18v6.01h16.44v8.25h-16.44v12.72h-9.64V155.94z"/>
		<path class="st0" d="M247.29,155.94h9.69v35.64h-9.69V155.94z"/>
		<path class="st0" d="M263.83,155.94h27.92v8.4h-18.43v5.39h16.69v7.79h-16.69v5.65H292v8.4h-28.17V155.94z"/>
		<path class="st0" d="M297.46,155.94h13.42c3.11,0,5.89,0.44,8.32,1.3c2.44,0.87,4.49,2.08,6.16,3.64
			c1.67,1.56,2.95,3.42,3.82,5.58c0.88,2.15,1.32,4.52,1.32,7.1v0.1c0,2.58-0.45,4.96-1.34,7.15c-0.9,2.19-2.19,4.08-3.87,5.68
			c-1.69,1.6-3.77,2.84-6.24,3.75c-2.47,0.89-5.26,1.34-8.37,1.34h-13.21V155.94z M311.04,182.82c2.89,0,5.22-0.78,6.98-2.34
			c1.77-1.56,2.64-3.78,2.64-6.66v-0.11c0-2.85-0.88-5.06-2.64-6.64c-1.76-1.58-4.09-2.37-6.98-2.37h-3.94v18.12H311.04z"/>
	</g>
</g>
</svg>
