<?xml version="1.0" encoding="utf-8"?>
<!-- Generator: Adobe Illustrator 23.0.3, SVG Export Plug-In . SVG Version: 6.00 Build 0)  -->
<svg version="1.1" id="Layer_1" xmlns="http://www.w3.org/2000/svg" xmlns:xlink="http://www.w3.org/1999/xlink" x="0px" y="0px"
	 viewBox="0 0 200 280" style="enable-background:new 0 0 200 280;" xml:space="preserve">
<style type="text/css">
	.st0{fill:#FFFFFF;}
	.st1{fill:#0091DA;}
	.st2{fill:#2D2A26;}
</style>
<g>
	<rect x="0.01" y="0.01" class="st0" width="199.99" height="279.98"/>
	<g>
		<rect x="6.85" y="6.68" class="st1" width="186.5" height="189.48"/>
		<g>
			<path class="st2" d="M14.79,212.82h4.29c1.6,0,3.54,0,4.6,1.48c0.34,0.49,0.68,1.14,0.73,2.44c0,2.28-0.91,3.68-3.27,4.09
				c-0.61,0.08-1.1,0.12-2.29,0.12h-4.06V212.82z M8.06,207.87v26.84h6.73v-8.78h4.49c3.88-0.07,7.72-0.27,10.19-3.84
				c1.52-2.13,1.6-4.45,1.6-5.32c0-2.66-0.92-4.6-1.48-5.47c-0.46-0.69-0.95-1.1-1.22-1.33c-2.05-1.79-4.45-2.01-6.99-2.1H8.06z"/>
			<path class="st2" d="M38.32,225.59c0.68-2.2,1.37-4.41,2.02-6.62c0.46-1.56,0.88-3.11,1.3-4.71l3.49,11.33H38.32z M45.24,207.87
				h-7l-9.95,26.84h7.14l1.33-4.29h9.89l1.33,4.29h7.15L45.24,207.87z"/>
			<path class="st2" d="M63.89,207.87l5.82,9.89c1.37,2.44,2.74,4.87,4.02,7.34l-0.3-17.23h6.43v26.84h-6.58l-5.02-8.52
				c-0.83-1.33-1.68-2.7-2.44-4.07c-0.79-1.41-1.51-2.85-2.27-4.3l0.22,16.89h-6.46v-26.84H63.89z"/>
			<polygon class="st2" points="102.99,207.87 102.99,213.16 96.02,213.16 96.02,234.71 89.26,234.71 89.26,213.16 82.27,213.16 
				82.27,207.87 			"/>
			<path class="st2" d="M123.22,221.94c-0.08,2.12-0.61,4.25-2.13,5.89c-1.67,1.78-3.76,2.01-4.64,2.01c-1.74,0-3.34-0.68-4.53-1.94
				c-1.09-1.18-2.24-3.15-2.24-6.81c0-2.85,0.95-6.19,3.66-7.67c0.5-0.31,1.51-0.76,2.99-0.76c0.47,0,1.45,0.03,2.59,0.5
				c1.44,0.6,2.24,1.55,2.59,2.01C122.32,216.27,123.33,218.55,123.22,221.94 M124.86,232.7c3.3-2.7,5.09-7.11,5.09-11.22
				c0-3.69-1.45-8.05-4.03-10.72c-1.41-1.45-4.49-3.73-9.59-3.73c-6.23,0-9.35,3.46-10.71,5.47c-2.36,3.46-2.56,7.27-2.56,8.67
				c0,1.6,0.23,6.69,3.84,10.49c3.43,3.57,7.88,3.84,9.51,3.84C120.83,235.51,123.41,233.88,124.86,232.7"/>
			<path class="st2" d="M139.81,207.87l5.82,9.89c1.37,2.44,2.74,4.87,4.03,7.34l-0.3-17.23h6.42v26.84h-6.58l-5.02-8.52
				c-0.83-1.33-1.67-2.7-2.43-4.07c-0.8-1.41-1.52-2.85-2.29-4.3l0.24,16.89h-6.46v-26.84H139.81z"/>
			<polygon class="st2" points="180.11,207.87 180.11,213.04 166.95,213.04 166.95,217.95 179.24,217.95 179.24,223.04 
				166.95,223.04 166.95,229.43 181.32,229.43 181.32,234.71 160.25,234.71 160.25,207.87 			"/>
			<path class="st2" d="M186.92,211.86v-1.54h1c0.39,0,0.8-0.02,1.01,0.36c0.06,0.13,0.11,0.26,0.11,0.39c0,0.08-0.02,0.24-0.12,0.4
				c-0.17,0.34-0.5,0.4-1.18,0.4H186.92z M190.52,215.76c-0.31-0.56-0.43-1.31-0.45-1.47c-0.09-0.5-0.11-1.1-0.48-1.5
				c-0.12-0.11-0.17-0.15-0.43-0.28c0.28-0.11,0.3-0.09,0.47-0.2c0.14-0.08,0.27-0.19,0.4-0.32c0.14-0.16,0.37-0.46,0.37-0.99
				c0-0.18-0.04-0.66-0.38-1.09c-0.56-0.67-1.46-0.63-2.24-0.63h-2.21v6.49h1.36v-2.8h0.32c0.49,0.01,0.65,0.01,0.88,0.13
				c0.29,0.19,0.34,0.4,0.44,1c0.07,0.46,0.13,1.05,0.3,1.48c0.02,0.05,0.05,0.13,0.09,0.18H190.52z M192.93,212.6
				c0.01-1.12-0.31-2.18-0.98-3.09c-0.98-1.32-2.48-2.04-4.1-2.04c-2.16,0-3.42,1.2-3.95,1.82c-0.41,0.5-1.16,1.57-1.16,3.26
				c0,2.27,1.32,3.55,1.98,4.07c0.89,0.67,1.99,1.04,3.12,1.04c0.72,0,2.54-0.18,3.88-1.78C192.8,214.6,192.93,213.22,192.93,212.6
				 M192.48,212.58c-0.01,1.94-1.2,3.69-3.07,4.35c-0.7,0.24-1.28,0.27-1.56,0.27c-1.89,0-3.6-1.13-4.31-2.87
				c-0.23-0.56-0.35-1.14-0.35-1.76c0-2.11,1.29-3.31,1.91-3.76c1.1-0.82,2.26-0.88,2.75-0.88c2.1,0,3.26,1.24,3.73,1.86
				C192.41,210.93,192.48,212.09,192.48,212.58"/>
		</g>
		<polygon class="st2" points="27.02,245.94 17.71,271.44 17.63,271.44 8.39,245.94 6.65,245.94 6.65,245.94 16.69,272.87 
			18.62,272.87 28.69,245.94 		"/>
		<g>
			<path class="st2" d="M42.84,269.29c0,1.13,0,2.34,1.27,2.34c0.27,0,0.61-0.03,1.07-0.12v1.21c-0.42,0.07-0.8,0.15-1.18,0.15
				c-2.26,0-2.59-1.24-2.59-2.83v-1.02h-0.09c-0.9,2.31-3.51,4.31-7.2,4.31c-3.67,0-6.49-1.41-6.49-5.47c0-4.53,3.92-5.47,7.13-5.73
				c6.41-0.45,6.68-0.87,6.68-4.04c0-0.86-0.98-3.81-5.39-3.81c-3.47,0-5.78,1.81-5.97,5.17h-1.42c0.18-4.27,2.82-6.42,7.39-6.42
				c3.39,0,6.79,1.06,6.79,5.05V269.29z M41.41,261.86c-1.14,1.28-4.23,1.13-7.02,1.5c-3.4,0.38-5.32,1.59-5.32,4.49
				c0,2.34,1.7,4.22,5.1,4.22c6.52,0,7.24-5.59,7.24-6.61V261.86z"/>
			<rect x="47.4" y="245.94" class="st2" width="1.43" height="26.94"/>
			<path class="st2" d="M53.36,245.94h1.43v3.89h-1.43V245.94z M53.36,253.48h1.43v19.39h-1.43V253.48z"/>
			<path class="st2" d="M73.96,268.73h-0.08c-1.58,3.05-3.96,4.6-7.42,4.6c-5.85,0-8.38-4.76-8.38-10.11
				c0-5.73,2.79-10.19,8.64-10.19c3.16,0,6.13,1.74,7.16,4.8h0.08v-11.89h1.43v26.94h-1.43V268.73z M73.92,263.22
				c0-4.53-2.23-8.94-7.2-8.94c-5.14,0-7.21,4.26-7.21,8.94c0,4.56,2.26,8.86,7.24,8.86C71.65,272.08,73.92,267.66,73.92,263.22"/>
			<path class="st2" d="M93.91,269.29c0,1.13,0,2.34,1.29,2.34c0.27,0,0.6-0.03,1.05-0.12v1.21c-0.41,0.07-0.78,0.15-1.17,0.15
				c-2.26,0-2.6-1.24-2.6-2.83v-1.02h-0.07c-0.91,2.31-3.51,4.31-7.21,4.31c-3.67,0-6.49-1.41-6.49-5.47c0-4.53,3.92-5.47,7.13-5.73
				c6.42-0.45,6.68-0.87,6.68-4.04c0-0.86-0.98-3.81-5.39-3.81c-3.47,0-5.78,1.81-5.97,5.17h-1.43c0.18-4.27,2.83-6.42,7.4-6.42
				c3.39,0,6.79,1.06,6.79,5.05V269.29z M92.48,261.86c-1.13,1.28-4.22,1.13-7.02,1.5c-3.39,0.38-5.32,1.59-5.32,4.49
				c0,2.34,1.7,4.22,5.1,4.22c6.52,0,7.24-5.59,7.24-6.61V261.86z"/>
			<path class="st2" d="M105.23,254.73h-4.22v13.54c0,3.14,1.48,3.44,4.18,3.36v1.24c-2.94,0.19-5.76-0.23-5.61-4.61v-13.54h-3.58
				v-1.25h3.58v-6.04h1.44v6.04h4.22V254.73z"/>
			<path class="st2" d="M108.1,263.36c-0.07,4.57,2.34,8.72,7.13,8.72c3.67,0,6.26-2.19,6.94-5.77h1.43
				c-0.75,4.52-3.77,7.02-8.38,7.02c-5.66,0-8.63-4.46-8.56-9.81c-0.07-5.32,2.72-10.49,8.56-10.49c6.08,0,8.79,4.8,8.53,10.33
				H108.1z M122.32,262.12c-0.08-4.08-2.64-7.85-7.09-7.85c-4.3,0-6.82,4-7.13,7.85H122.32z"/>
			<path class="st2" d="M141.74,268.73h-0.07c-1.58,3.05-3.96,4.6-7.43,4.6c-5.85,0-8.37-4.76-8.37-10.11
				c0-5.73,2.78-10.19,8.63-10.19c3.16,0,6.15,1.74,7.17,4.8h0.07v-11.89h1.43v26.94h-1.43V268.73z M141.71,263.22
				c0-4.53-2.22-8.94-7.21-8.94c-5.13,0-7.2,4.26-7.2,8.94c0,4.56,2.26,8.86,7.24,8.86C139.45,272.08,141.71,267.66,141.71,263.22"
				/>
			<path class="st0" d="M170.83,36.84l3.29,5.7c-21.4,15.11-41.22,34.25-59.48,57.39c-18.26,23.15-31.44,45.83-39.54,68.03
				l-4.82,3.18c-4.16,2.7-7.74,5.4-10.73,8.1c-0.51-2.63-1.93-6.86-4.27-12.7l-2.53-6.24c-5.47-13.5-10.09-22.95-13.85-28.32
				c-3.76-5.36-7.83-8.27-12.21-8.71c5.92-5.4,11.06-8.1,15.44-8.1c6.05,0,12.7,8.15,19.93,24.42l3.94,8.76
				c12.93-23.15,28.54-44.47,46.83-63.96C131.12,64.88,150.45,49.04,170.83,36.84"/>
		</g>
	</g>
</g>
</svg>
