<svg version="1.1" id="Layer_1" xmlns="http://www.w3.org/2000/svg" x="0" y="0" viewBox="0 0 250.6 153.9" style="enable-background:new 0 0 250.6 153.9" xml:space="preserve"><style>.st0{fill:#fff}</style><g id="XMLID_112_"><g id="XMLID_116_"><path id="XMLID_259_" class="st0" d="M36.5 34.7h-8.6l-2.6-6.3H10.9l-2.4 6.3H.1L13 2.7h9.2l14.3 32zM17.8 10.3l-4.7 12.4H23l-5.2-12.4z"/><path id="XMLID_257_" class="st0" d="M67.6 2.7h6.9v32h-8v-20l-8.6 10h-1.2l-8.6-10v20h-8v-32H47l10.3 11.9L67.6 2.7z"/><path id="XMLID_117_" class="st0" d="M94.8 2.7c11.7 0 17.7 7.3 17.7 16 0 9.2-5.8 15.9-18.6 15.9H80.7v-32h14.1zm-6.1 26.1h5.2c8 0 10.4-5.4 10.4-10.1 0-5.5-3-10.1-10.5-10.1h-5.1v20.2z"/></g><g id="XMLID_113_"><path id="XMLID_115_" class="st0" d="M144.8 10.3h-16.5L118.3.2h36.6v36.6l-10.1-10z"/><path id="XMLID_114_" class="st0" d="M128.3 26.8V12.3L118 22.6v14.5h14.5l10.3-10.3z"/></g></g><path class="st0" d="M101.7 61.9h28.9l-28.9 25v8.3h41.6v-8.3h-28.9L143.3 62v-8.4h-41.6zM71 70.1 59.1 53.6H48.9l17.9 25v16.6h8.4V78.6l18-25H83zM154.9 53.6h41.6v8.3h-41.6zM154.9 70.3v24.9h41.6v-8.3h-33.3v-8.3h33.3v-8.3zM8.4 78.6h15.4l9.6 16.7H43l-9.6-16.7c4.6 0 8.3-3.7 8.3-8.3V62c0-4.6-3.7-8.3-8.3-8.3H.1V62h32.7c.3 0 .6.3.6.6v7.1c0 .3-.3.6-.6.6H.1v25h8.3V78.6zM242.4 53.6v29l-24.9-29h-8.4v41.6h8.4V66.3l24.9 28.9h8.4V53.6zM.1 113.3h250.6v1.3H.1z"/><g><path class="st0" d="M.8 131.1h12.1v3.6h-8v5.5c1.2 0 1.8.1 3.1.1 4 .2 5.3 2.2 5.3 5.2v2.1c0 3.6-1.3 5.8-7.4 5.8-2.1 0-4.2-.3-5.8-.8l.5-3.4c1.7.4 3.6.6 5.2.6 3.1 0 3.3-.7 3.3-2.5v-1.1c0-1.6-.5-2.3-2.9-2.4-2.4-.1-3.6-.1-5.4-.2v-12.5zM38.8 147.4c0 3.4-1.8 6.1-7.3 6.1s-7.3-2.7-7.3-6.1v-10.5c0-3.4 1.8-6.1 7.3-6.1s7.3 2.7 7.3 6.1v10.5zm-10.5-.4c0 2 .6 2.9 3.2 2.9s3.2-.9 3.2-2.9v-9.7c0-2-.6-2.9-3.2-2.9s-3.2.9-3.2 2.9v9.7zM64.7 147.4c0 3.4-1.8 6.1-7.3 6.1s-7.3-2.7-7.3-6.1v-10.5c0-3.4 1.8-6.1 7.3-6.1s7.3 2.7 7.3 6.1v10.5zm-10.6-.4c0 2 .6 2.9 3.2 2.9s3.2-.9 3.2-2.9v-9.7c0-2-.6-2.9-3.2-2.9s-3.2.9-3.2 2.9v9.7zM90.6 147.4c0 3.4-1.8 6.1-7.3 6.1s-7.3-2.7-7.3-6.1v-10.5c0-3.4 1.8-6.1 7.3-6.1s7.3 2.7 7.3 6.1v10.5zM80 147c0 2 .6 2.9 3.2 2.9s3.2-.9 3.2-2.9v-9.7c0-2-.6-2.9-3.2-2.9s-3.2.9-3.2 2.9v9.7zM122.4 153.4c-2.6 0-5.6-.6-7.1-1.4l.7-3.4c2.1.6 4.1 1.1 6.4 1.1 3.1 0 3.6-.6 3.6-2.8 0-2.5-.1-2.7-4.1-3.6-5.5-1.2-6.2-2.3-6.2-7.1 0-4.1 1.9-6.2 7.6-6.2 2 0 4.4.2 6.6.7l-.5 3.6c-1.9-.4-4.1-.7-6.1-.7-2.9 0-3.4.6-3.4 2.6 0 2.6.1 2.7 4 3.6 6.1 1.5 6.4 2.4 6.4 7 .1 4.4-1.2 6.6-7.9 6.6zM141.4 130.5h13.9v3.8h-9.6v5.5h8.8v3.8h-8.8v5.8h9.6v3.8h-13.9v-22.7zM180 153.1l-5.2-7.5h-4.1v7.5h-4.3v-22.6h9.3c5.3 0 7.2 2.1 7.2 6.1v3c0 2.7-1 4.6-3.4 5.5l5.6 8.1H180zm-4.4-18.9h-4.8v7.7h4.8c2.3 0 3.1-.9 3.1-2.8v-2.2c0-1.9-.9-2.7-3.1-2.7zM199.4 153.1h-4.3v-22.6h4.3v22.6zM211.4 130.5h13.9v3.8h-9.6v5.5h8.8v3.8h-8.8v5.8h9.6v3.8h-13.9v-22.7zM242.6 153.4c-2.6 0-5.6-.6-7.1-1.4l.7-3.4c2.1.6 4.1 1.1 6.4 1.1 3.1 0 3.6-.6 3.6-2.8 0-2.5-.1-2.7-4.1-3.6-5.5-1.2-6.2-2.3-6.2-7.1 0-4.1 1.9-6.2 7.6-6.2 2 0 4.4.2 6.6.7l-.5 3.6c-1.9-.4-4.1-.7-6.1-.7-2.9 0-3.4.6-3.4 2.6 0 2.6.1 2.7 4 3.6 6.1 1.5 6.4 2.4 6.4 7 .1 4.4-1.2 6.6-7.9 6.6z"/></g></svg>