<svg version="1.1" id="Logo" xmlns="http://www.w3.org/2000/svg" x="0" y="0" viewBox="0 0 662.8 216" style="enable-background:new 0 0 662.8 216" xml:space="preserve"><style>.st1{fill:#76b900}.st2{fill:#fff}</style><g id="NVIDIA_GeForce_RTX_2_"><g id="XMLID_2_"><path style="fill:#1e1e1e" d="m307.3 0-57.8 216h344.6L652 0z"/><path class="st1" d="m652 0-57.9 216h10.8L662.8 0zM0 0v216h249.5L307.3 0z"/><g id="NVIDIA_Logo_18_"><path id="NVIDIA_117_" class="st2" d="M115.9 142.9v32.6h9.2v-32.6h-9.2zm-72.5-.1v32.7h9.3v-24.8h7.2c2.4 0 4.1.6 5.2 1.8 1.5 1.6 2.1 4.1 2.1 8.6v14.3h9v-18c0-12.9-8.2-14.6-16.2-14.6H43.4m87.3.1v32.6h14.9c8 0 10.6-1.3 13.4-4.3 2-2.1 3.3-6.7 3.3-11.7 0-4.6-1.1-8.7-3-11.2-3.4-4.6-8.3-5.4-15.7-5.4h-12.9zm9.1 7.1h4c5.7 0 9.5 2.6 9.5 9.3 0 6.7-3.7 9.3-9.5 9.3h-4V150zm-37.2-7.1-7.7 25.9-7.4-25.9h-9.9l10.5 32.6h13.3l10.6-32.6h-9.4zm64 32.6h9.2v-32.6h-9.2v32.6zm25.8-32.6-12.9 32.6h9.1l2-5.8h15.2l1.9 5.8h9.9l-13-32.6h-12.2zm31.7 35.3c-2.5 0-4.6-2-4.6-4.6 0-2.5 2-4.6 4.6-4.6 2.5 0 4.6 2 4.6 4.6-.1 2.5-2.1 4.6-4.6 4.6zm0-8.3c-2 0-3.6 1.6-3.6 3.7s1.6 3.7 3.6 3.7 3.6-1.6 3.6-3.7-1.6-3.7-3.6-3.7zm.8 6.1-.9-1.9h-.5v1.9h-1.1v-4.8h2c1 0 1.6.7 1.6 1.5 0 .7-.4 1.1-.9 1.3l1 2h-1.2zm-.7-3.9h-.8v1.3h.8c.4 0 .7-.3.7-.6s-.3-.7-.7-.7zm-25.8-23.3 5.6 15.3h-11.3l5.7-15.3z"/><path id="Eye_Mark_94_" class="st2" d="M103.7 66.5v-7.8c.8-.1 1.5-.1 2.3-.1 21.4-.7 35.5 18.4 35.5 18.4S126.3 98 110 98c-2.3 0-4.4-.4-6.3-1V73.2c8.3 1 10 4.7 15 13.1l11.2-9.4s-8.1-10.7-21.9-10.7c-1.5 0-2.9.1-4.3.3m0-25.9v11.7c.8-.1 1.5-.1 2.3-.1 29.8-1 49.2 24.4 49.2 24.4s-22.3 27.1-45.5 27.1c-2.1 0-4.1-.2-6-.5v7.2c1.6.2 3.3.3 5 .3 21.6 0 37.3-11 52.4-24.1 2.5 2 12.8 6.9 14.9 9-14.4 12.1-48 21.8-67 21.8-1.8 0-3.6-.1-5.3-.3v10.2h82.2V40.6h-82.2zm0 56.4v6.2c-20-3.6-25.6-24.4-25.6-24.4s9.6-10.6 25.6-12.4v6.8c-8.4-1-14.9 6.8-14.9 6.8s3.6 13.2 14.9 17M68.2 77.9s11.9-17.5 35.5-19.3v-6.3c-26.2 2.1-48.9 24.3-48.9 24.3s12.9 37.2 48.9 40.6v-6.7c-26.5-3.4-35.5-32.6-35.5-32.6z"/></g><g><path class="st2" d="M410.1 175.5h-17.9l-21-34.7h-15.6v34.7h-16.5V90.4h51.1c7.9 0 14.2 6.4 14.2 14.2v22c0 7.9-6.4 14.2-14.2 14.2h-1l20.9 34.7zm-54.4-49.8h27.7c2.4 0 4.2-1.9 4.2-4.2v-11.6c0-2.4-1.9-4.4-4.2-4.4h-27.7v20.2zM479.2 90.4v14.8h-24.3v70.3h-16.6v-70.3H414V90.4h65.2zM542.6 90.4H561l-26.8 40.4 28.3 44.7h-19.9l-18.4-29-18.7 29h-18.2l28.2-42.9-26.6-42.2h19.9l16.8 26.8 17-26.8zM572.2 90.4v.9h-2.6v7h-1v-7h-2.4v-.9h6zm7.6 0h1v7.9h-1v-6.2l-2.3 3.9h-.9l-2.2-3.8v6h-1v-7.9h1l2.7 4.6 2.7-4.5z"/></g><g><path class="st2" d="M339.2 46.5c0-3.3 2.7-6 6-6h22.6V47h-19.7c-1 0-1.8.8-1.8 1.8v16.7c0 .5.2.9.5 1.3l2.5 2.5c.4.4.8.5 1.3.5h9.6c1 0 1.8-.8 1.8-1.8v-6.4h-8.4v-6.4H369v15.2c0 3.2-2.7 5.9-6 5.9h-15.9c-.5 0-.9-.2-1.3-.5l-6.1-6.1c-.3-.3-.5-.8-.5-1.3V46.5zM382 46.9v8.4h14.5v6.3H382v8.3h18v6.3h-25V40.6h25v6.3h-18zM412.2 76.2h-7V40.6h25v6.3h-18v8.4h14.5v6.3h-14.5v14.6zM435.2 46.5c0-3.3 2.7-6 5.9-6H459c3.2 0 5.9 2.7 5.9 6v23.8c0 3.3-2.7 5.9-5.9 5.9h-17.9c-3.2 0-5.9-2.6-5.9-5.9V46.5zm21 23.4c1 0 1.8-.8 1.8-1.8V48.7c0-1-.8-1.8-1.8-1.8h-12.3c-1 0-1.8.8-1.8 1.8v19.4c0 1 .8 1.8 1.8 1.8h12.3zM500.5 76.2H493l-8.8-14.5h-6.5v14.5h-6.9V40.6h21.4c3.3 0 6 2.7 6 6v9.2c0 3.3-2.7 6-6 6h-.4l8.7 14.4zm-22.8-20.8h11.6c1 0 1.8-.8 1.8-1.8v-4.9c0-1-.8-1.8-1.8-1.8h-11.6v8.5zM528 46.9h-15.1c-1 0-1.8.8-1.8 1.8v19.4c0 1 .8 1.8 1.8 1.8H528v6.3h-17.8c-3.3 0-6-2.7-6-5.9V46.5c0-3.3 2.7-6 6-6H528v6.4zM540.6 46.9v8.4h14.5v6.3h-14.5v8.3h18v6.3h-25V40.6h25v6.3h-18z"/></g></g></g></svg>