<?xml version="1.0" encoding="utf-8"?>
<!-- Generator: Adobe Illustrator 26.0.1, SVG Export Plug-In . SVG Version: 6.00 Build 0)  -->
<svg version="1.1" id="圖層_1" xmlns="http://www.w3.org/2000/svg" xmlns:xlink="http://www.w3.org/1999/xlink" x="0px" y="0px"
	 viewBox="0 0 517.4 277.6" style="enable-background:new 0 0 517.4 277.6;" xml:space="preserve">
<style type="text/css">
	.st0{fill:none;stroke:#FFFFFF;stroke-miterlimit:10;}
</style>
<path class="st0" d="M342.7,239.8c-44.1,8.9-122.5-22.1-122.6-22.2c6.7-5.1,88.4-66.3,281.3-145c0.2-0.1,0.5-0.1,0.7-0.2
	c6.4-2.6,15-17.6,15.3-26.2c0,0-68.3,6.2-128.7,37.2c-81.3,38.8-218.4,136.5-218.4,136.5s10,6.7,18.8,10.5
	c66.2,29.1,163.1,46.8,181.9,40.7c51-16.5,108-124.6,126-174.5c0,0-53.6,21.3-107.9,46.8c-45.4,21.3-73,34.9-85.9,41.5
	c-1.4,0.6-2.2,0.9-2.6,1l2.3-0.9c-5.8,2.9-8.6,4.4-8.6,4.4l126.4-38.2l0,0C420.7,151.2,386.8,230.9,342.7,239.8z"/>
<path class="st0" d="M300.6,185.9l-0.3,0.1C300.4,186,300.5,186,300.6,185.9z"/>
<path class="st0" d="M496,1.9c0,0-67.3-11-163.4,19.3c-34.3,10.8-84.7,58.7-177,149.1c-12.6,7-57.6-18.9-83.5-31.3
	c0,0,43.1,68.1,58.1,88.5c23.4,31.7,65.5,50.1,65.5,50.1s-0.5-0.5-1.4-1.5c-6.3-6.7-31.8-34.5-40.3-50.7c-5-9.6,1.2-22.4,42.4-52.9
	C233.6,145,367.7,32.2,496,1.9"/>
<path class="st0" d="M0.1,122.8c1.5,3.9,15.2,40.1,29.3,58.2c13.8,17.8,69.5,31.7,77.4,33.6c0.6,0.3,1,0.4,1,0.4
	c-0.1-0.1-0.3-0.2-0.4-0.3c0.2,0.1,0.4,0.1,0.4,0.1C72.4,190,0,122.5,0,122.5"/>
</svg>
