<?xml version="1.0" encoding="utf-8"?>
<!-- Generator: Adobe Illustrator 25.4.1, SVG Export Plug-In . SVG Version: 6.00 Build 0)  -->
<svg version="1.1" id="LOGO" xmlns="http://www.w3.org/2000/svg" xmlns:xlink="http://www.w3.org/1999/xlink" x="0px" y="0px"
	 viewBox="0 0 794.18 300.01" style="enable-background:new 0 0 794.18 300.01;" xml:space="preserve">
<g>
	<polygon points="233.92,283.07 233.92,247.52 263.39,247.52 263.39,240.11 218.52,240.11 218.52,290.48 273.17,290.48 
		266.69,283.07 	"/>
	<path d="M270.59,276.59l12.23,13.89h39.26v-50.37h-51.49V276.59z M285.63,247.52h21.42v35.55h-12.85l-8.56-9.71V247.52z"/>
	<path d="M329.09,276.59l12.23,13.89h40.86v-50.37h-53.09V276.59z M344.13,247.52h23.02v35.55h-14.45l-8.56-9.71V247.52z"/>
	<polygon points="499.52,267.31 458.07,240.11 458.07,290.48 473.11,290.48 473.11,263.06 514.34,290.48 514.34,240.11 
		499.52,240.11 	"/>
	<polygon points="575.57,247.52 581.97,240.11 521.54,240.11 521.54,290.48 579.74,290.48 579.74,263.06 564.7,263.06 564.7,283.07 
		536.86,283.07 536.86,247.52 	"/>
	<polygon points="435.77,282.42 450.88,300.01 450.88,240.11 435.77,240.11 	"/>
	<polygon points="404.42,283.07 404.42,240.11 389.38,240.11 389.38,283.13 395.73,290.48 436.34,290.48 429.94,283.07 	"/>
	<polygon points="283.76,202.25 240.8,175.05 240.8,225.42 255.84,225.42 255.84,198.01 298.58,225.42 298.58,175.05 283.76,175.05 
			"/>
	<polygon points="409.88,182.46 409.88,175.05 358.21,175.05 358.21,225.42 416.27,225.42 409.96,218.01 373.32,218.01 
		373.32,203.98 409.88,203.98 409.88,196.57 373.32,196.57 373.32,182.46 	"/>
	<polygon points="536.68,234.95 536.68,175.05 521.57,175.05 521.57,217.37 	"/>
	<polygon points="596.98,182.46 603.38,175.05 543.87,175.05 543.87,225.42 601.15,225.42 601.15,198.01 586.11,198.01 
		586.11,218.01 559.2,218.01 559.2,182.46 	"/>
	<polygon points="714,202.25 671.04,175.05 671.04,225.42 686.08,225.42 686.08,198.01 728.82,225.42 728.82,175.05 714,175.05 	"/>
	<polygon points="320.88,225.42 335.92,225.42 335.92,182.46 354.62,182.46 354.62,175.05 302.18,175.05 302.18,182.46 
		320.88,182.46 	"/>
	<polygon points="469.99,175.05 469.99,218.07 476.34,225.42 520.79,225.42 514.39,218.01 485.03,218.01 485.03,175.05 	"/>
	<polygon points="462.65,218.01 432.24,218.01 432.24,175.05 417.2,175.05 417.2,218.07 423.55,225.42 469.06,225.42 	"/>
	<polygon points="212.09,175.05 218.49,182.46 218.49,225.42 233.6,225.42 233.6,175.05 218.49,175.05 	"/>
	<polygon points="663.84,182.46 663.84,175.05 608.38,175.05 608.38,225.42 663.85,225.42 663.93,218.01 623.49,218.01 
		623.49,203.98 663.84,203.98 663.84,196.57 623.49,196.57 623.49,182.46 	"/>
	<polygon points="48.28,201.89 64.26,201.89 64.26,175.05 0,175.05 6.41,182.47 6.41,240.35 21.52,225.42 21.66,225.42 
		21.66,182.47 49.43,182.47 49.43,194.48 23.96,194.48 51.09,225.42 68.86,225.42 	"/>
	<path d="M70.65,211.53v-36.48h57.13v50.37h-44.9L70.65,211.53z M85.69,208.3l8.56,9.71h18.49v-35.54H85.69V208.3z"/>
	<path d="M177.27,198.01h15.04v27.41h-57.35v-50.37h59.58l-6.4,7.41h-37.85v35.54h26.98V198.01z"/>
	<polygon points="732.42,175.04 732.42,182.45 753.04,182.45 753.04,225.42 768.15,240.35 768.15,182.45 787.81,182.45 
		794.18,175.04 	"/>
	<path d="M340.63,35.57C362.49,8.39,399.28,2.3,433.4,20.64c30.3,16.28,48.09,41.54,93.44,34.7c-42.05,0-55.48-21.3-89.9-41.81
		C399.96-8.51,352.81-3.76,326.48,28.78l10.39,12.03C338.01,39.01,339.24,37.23,340.63,35.57z"/>
	<path d="M354.4,52.63c17.02-29.13,52.67-33.52,81.24-14.08c31,21.09,61.37,40.77,101.63,22.99
		c-47.42,13.68-71.92-15.73-108.88-36.33c-28.78-15.59-69.8-8.82-87.13,20.67l10.34,12.08C351.59,57.97,352.91,55.18,354.4,52.63z"
		/>
	<path d="M517.17,76.45c-38.85,6.36-61.31-20.81-95.65-37.57c-8.88-4.33-18.62-6.15-28.06-4.72c-16.16,2.44-31.12,13.3-36.91,29.44
		l16.52,18.69c-3.93-15.29,7.22-38.08,32.31-38.08c12.9,0,24.36,8.18,35.21,15.06c36.3,23.04,70.76,33.06,106.4,7.73
		C546.98,66.99,529.07,74.5,517.17,76.45z"/>
	<path d="M396.05,111.33c2.01,0.2,4-0.57,5.49-1.93c1.82-1.65,2.68-3.12,3-4.47c0.32-1.33,1.62-2.21,2.94-1.92
		c0.48,0.11,0.97,0.17,1.47,0.19c4.69,0.2,8.66-3.45,8.85-8.14c0.04-0.86-0.26-1.95-0.63-2.96c-0.48-1.32,0.23-2.75,1.58-3.12
		c4.35-1.2,7.42-5.52,6.47-10.55c-0.6-3.2-2.95-5.86-6.06-6.84c-6.05-1.9-11.76,2.44-12,8.29c-0.05,1.29,0.17,2.52,0.61,3.65
		c0.51,1.3-0.09,2.91-1.45,3.23c-3.39,0.81-5.62,3.76-5.51,7.59c0,0.07,0,0.15,0,0.24c0.02,0.94-0.86,1.61-1.76,1.33
		c-1.16-0.36-2.44-0.45-3.79-0.18c-2.89,0.58-5.63,3.3-6.18,6.19C388.17,106.65,391.52,110.89,396.05,111.33z"/>
	<circle cx="381.32" cy="108.56" r="7.27"/>
	<path d="M366.18,112.27c3.67,0,6.65-2.98,6.65-6.65c0-3.67-2.98-6.65-6.65-6.65c-3.67,0-6.65,2.98-6.65,6.65
		C359.53,109.29,362.51,112.27,366.18,112.27z"/>
	<path d="M352.11,105c3.33,0,6.03-2.7,6.03-6.03c0-3.33-2.7-6.03-6.03-6.03c-3.33,0-6.03,2.7-6.03,6.03
		C346.07,102.3,348.77,105,352.11,105z"/>
	<circle cx="337.85" cy="91.62" r="5.42"/>
	<circle cx="324.21" cy="83.19" r="4.8"/>
	<path d="M310.09,80.1c2.31,0,4.18-1.87,4.18-4.18c0-2.31-1.87-4.18-4.18-4.18c-2.31,0-4.18,1.87-4.18,4.18
		C305.91,78.22,307.78,80.1,310.09,80.1z"/>
	<path d="M298.1,72.04c0-1.97-1.6-3.57-3.57-3.57c-1.97,0-3.57,1.6-3.57,3.57s1.6,3.57,3.57,3.57C296.5,75.6,298.1,74,298.1,72.04z"
		/>
	<path d="M281.61,72.38c0-1.63-1.32-2.95-2.95-2.95c-1.63,0-2.95,1.32-2.95,2.95s1.32,2.95,2.95,2.95
		C280.29,75.33,281.61,74.01,281.61,72.38z"/>
	<path d="M263.09,73.84c-1.29,0-2.33,1.04-2.33,2.33c0,1.29,1.04,2.33,2.33,2.33c1.29,0,2.33-1.04,2.33-2.33
		C265.43,74.88,264.38,73.84,263.09,73.84z"/>
	<path d="M248.91,81.64c-0.95,0-1.71,0.77-1.71,1.71c0,0.95,0.77,1.71,1.71,1.71c0.95,0,1.71-0.77,1.71-1.71
		C250.63,82.41,249.86,81.64,248.91,81.64z"/>
	<path d="M428.86,89.3c-4.05,0.41-7.31,3.67-7.76,7.72c-0.15,1.34,0.02,2.62,0.44,3.79c0.33,0.93-0.4,1.89-1.39,1.89l-0.03,0
		c-4.8,0-8.63,4.16-8.09,9.06c0.05,0.41,0.12,0.82,0.23,1.21c0.11,0.41-0.35,0.74-0.7,0.48c-1.44-1.05-3.27-1.6-5.23-1.4
		c-3.44,0.36-6.25,3.09-6.69,6.52c-0.59,4.62,2.99,8.55,7.49,8.55c3.92,0,7.25-3.09,7.53-7c0.06-0.82-0.01-1.6-0.2-2.35
		c-0.11-0.43,0.37-0.74,0.72-0.48c1.14,0.88,2.51,1.46,4,1.62c4.91,0.54,9.06-3.29,9.06-8.09c0-0.73-0.1-1.43-0.28-2.1
		c-0.28-1.03,0.48-2.04,1.54-2.04h0c4.8,0.01,8.88-3.76,8.97-8.56C438.59,92.95,434.14,88.77,428.86,89.3z"/>
	<circle cx="391.52" cy="123.84" r="6.97"/>
	<path d="M382,123.46c0-3.53-2.86-6.39-6.38-6.39s-6.39,2.86-6.39,6.39s2.86,6.38,6.39,6.38C379.14,129.84,382,126.99,382,123.46z"
		/>
	<circle cx="360.38" cy="118.83" r="5.8"/>
	<path d="M351.5,111.09c0-2.88-2.34-5.22-5.22-5.22s-5.22,2.34-5.22,5.22c0,2.88,2.34,5.22,5.22,5.22S351.5,113.97,351.5,111.09z"/>
	<circle cx="332.69" cy="102.5" r="4.63"/>
	<path d="M318.86,90.29c-2.24,0-4.05,1.81-4.05,4.05c0,2.24,1.81,4.05,4.05,4.05c2.24,0,4.05-1.81,4.05-4.05
		C322.91,92.1,321.09,90.29,318.86,90.29z"/>
	<circle cx="304.42" cy="87.26" r="3.46"/>
	<circle cx="288.69" cy="84.03" r="2.88"/>
	<circle cx="272.67" cy="84.29" r="2.3"/>
	<path d="M257.12,86.61c-0.95,0-1.71,0.77-1.71,1.71c0,0.95,0.77,1.71,1.71,1.71c0.95,0,1.71-0.77,1.71-1.71
		C258.83,87.37,258.07,86.61,257.12,86.61z"/>
	<path d="M441.47,106.2c-3.86,0.3-7.08,3.21-7.84,7c-0.17,0.86-0.21,1.69-0.13,2.49c0.14,1.39-0.97,2.61-2.37,2.53
		c-0.67-0.04-1.37,0.01-2.09,0.16c-3.44,0.73-6.09,3.63-6.44,7.13c-0.51,5.15,3.78,9.44,8.92,8.93c3.49-0.35,6.39-3,7.13-6.43
		c0.15-0.71,0.2-1.41,0.17-2.08c-0.08-1.4,1.14-2.5,2.53-2.36c0.81,0.08,1.65,0.05,2.52-0.13c3.8-0.76,6.7-3.99,7-7.85
		C451.29,110.23,446.84,105.78,441.47,106.2z"/>
	<circle cx="416.61" cy="134.07" r="7.55"/>
	<path d="M401.16,131.6c-3.85,0-6.97,3.12-6.97,6.97c0,3.85,3.12,6.97,6.97,6.97c3.85,0,6.97-3.12,6.97-6.97
		C408.13,134.72,405.01,131.6,401.16,131.6z"/>
	<path d="M385.09,132.91c-3.53,0-6.38,2.86-6.38,6.38s2.86,6.39,6.38,6.39s6.39-2.86,6.39-6.39
		C391.47,135.77,388.61,132.91,385.09,132.91z"/>
	<circle cx="369.24" cy="136.58" r="5.8"/>
	<circle cx="354.03" cy="130.93" r="5.22"/>
	<circle cx="340.25" cy="122.42" r="4.63"/>
	<circle cx="326.65" cy="113.58" r="4.05"/>
	<path d="M313.3,100.91c-1.91,0-3.46,1.55-3.46,3.47s1.55,3.46,3.46,3.46c1.91,0,3.46-1.55,3.46-3.46S315.21,100.91,313.3,100.91z"
		/>
	<circle cx="298.63" cy="97.55" r="2.88"/>
	<circle cx="282.77" cy="94.27" r="2.3"/>
	<path d="M266.58,92.24c-0.95,0-1.71,0.77-1.71,1.71c0,0.95,0.77,1.71,1.71,1.71c0.95,0,1.71-0.77,1.71-1.71
		C268.3,93,267.53,92.24,266.58,92.24z"/>
	<path d="M603.91,240.11l-0.94,1.09h-2.74v6.32h-2.21v-6.32h-2.77l-0.94-1.09H603.91z"/>
	<path d="M606.55,247.52h-2.21v-7.41l4.56,2.96l4.56-2.96v7.41h-2.19v-4.25l-2.37,1.5l-2.35-1.5V247.52z"/>
</g>
</svg>
