<?xml version="1.0" encoding="utf-8"?>
<!-- Generator: Adobe Illustrator 26.0.1, SVG Export Plug-In . SVG Version: 6.00 Build 0)  -->
<svg version="1.1" id="圖層_1" xmlns="http://www.w3.org/2000/svg" xmlns:xlink="http://www.w3.org/1999/xlink" x="0px" y="0px"
	 viewBox="0 0 430.1 83.2" style="enable-background:new 0 0 430.1 83.2;" xml:space="preserve">
<g>
	<defs>
		<path id="SVGID_3_" d="M112.4,45.9l11.8,18.7l-11.8,18.6H100l-5.5-5.5h10.2l8.5-13.1l-8.5-13.2H89v20.8v5.5h5.5v5.5H77.9V51.9
			l-5.1-6H112.4z M47.4,19.7V0H0l5,5.8v39.8l11.2-8.8V5.4h20.3v8.8H17.9l19.9,22.7h13L35.7,19.7H47.4z M93.8,36.9l-33.3,0l-9-10.2V0
			l42.2,0V36.9z M82.8,5.4l-20.2,0v5.4l-5.4-5.4v5.4h5.4v13.5l6.3,7.1l13.9,0V5.4z M94.5,72.2H89l5.5,5.5V72.2z M334.9,0h-10.8v0
			l5.4,5.4h-5.4v26h-21.8V0h-11v36.9h43.6V0z M324.1,0h-5.4l5.4,5.4V0z M164.2,16.8l32.6,20.1V0h-10.8l5.4,5.4h-5.4v14.8L153.2,0
			v36.9h11V16.8z M185.9,0h-5.4l5.4,5.4V0z M246.8,36.9l-4.8-5.8V0h41.6v14.1h3.2v22.8H246.8z M253,29.1l2,2.3h20.7v-12h-17v0
			l-0.2,0l-4.7-5.4h21.9V5.4H253V29.1z M237.3,31.5h-25.7V21.2h25.7v-5.4h-25.7V5.4h25.7V0h-36.8v36.9H242L237.3,31.5z M333.5,57.4
			l-10.2-11.5h-12.9l17.5,19.7v17.6h11.2V65.6l17.5-19.7h-12.9L333.5,57.4z M274.1,51.3h-5.4v26.4l4.9,5.5h6.7V51.4h17.5v10.4h-16.7
			l4.8,5.5l11.8,0v15.9H309V45.9l-40.3,0L274.1,51.3z M123.3,45.9H122l5.5,5.5v31.8h11.2V45.9h-11.2H123.3z M268.7,45.9h-5.4
			l5.4,5.4V45.9L268.7,45.9z M378,0h-5.4l5.4,5.4V0L378,0z M378,0l5.4,5.4H378v26l4.8,5.4h6.6V5.4h24.3v10.3h-23.4l4.8,5.5l18.9,0
			v15.7l11.1,8.8V5.8l5-5.8H378z M355.6,31.5v-5.4h-5.4L355.6,31.5h-5.4V0h-11v36.9h16.4V31.5l5.4,5.4h17.6l-4.8-5.4H355.6z M98,0
			h42l-4.7,5.4h-26.1V26h5.4v5.4h12.9v-8.7l-5.2-6l16.3,0v20.1h-18.5l-5.4-5.4v5.4H98V0z M109.3,31.5h5.4l-5.4-5.4V31.5z
			 M142.8,51.8v15.4h27.4v8.1l-2,2.3h-25.4v5.5h33.8l4.8-5.6V61.8h-27.5v-7.7l2.4-2.7h25.3v-5.5h-33.7L142.8,51.8z M185.7,45.9
			L185.7,45.9l0,37.3h11.1V51.4h17.5v13.1h-16.6l4.8,5.5h23V45.9l0,0H185.7z M246.2,77.7l5.5,5.5h17.7l-4.8-5.5H246.2z M240.7,77.7
			v-5.4l5.4,5.4v-5.5h-5.4V46h-11.1h0v37.2h16.6v-5.5H240.7z M358.8,46.7h2v4.6h1.6v-4.6h2l0.7-0.8h-7L358.8,46.7z M368.8,48.1
			l-3.3-2.2v5.4h1.6v-3.1l1.7,1.1l1.7-1.1v3.1h1.6v-5.4L368.8,48.1z"/>
	</defs>
	<use xlink:href="#SVGID_3_"  style="overflow:visible;fill:#FFFFFF;"/>
	<clipPath id="SVGID_00000098923784042433283300000018442142272485730482_">
		<use xlink:href="#SVGID_3_"  style="overflow:visible;"/>
	</clipPath>
</g>
</svg>
